<svg version="1.1" id="Layer_1" xmlns="http://www.w3.org/2000/svg" xmlns:xlink="http://www.w3.org/1999/xlink" x="0px" y="0px"
	 width="100%" viewBox="0 0 736 496" enable-background="new 0 0 736 496" xml:space="preserve">
<path fill="#000000" opacity="1.000000" stroke="none" 
	d="
M378.562500,1.000000 
	C382.036896,4.375536 381.989655,8.611715 382.271210,12.752395 
	C384.700836,48.482166 388.797974,83.959198 399.284332,118.373428 
	C408.742737,149.414200 423.640045,177.102539 449.521301,197.796677 
	C471.201660,215.131836 496.398376,224.891129 522.964294,231.510513 
	C550.160095,238.286850 577.859802,241.879669 605.795715,243.776306 
	C610.278015,244.080612 614.763855,244.374908 619.232422,244.827515 
	C623.100586,245.219299 626.200989,247.011261 626.083557,251.287308 
	C625.968506,255.478577 623.091064,257.076782 619.007812,257.383148 
	C583.472412,260.049469 548.047241,263.538940 513.594727,273.333008 
	C485.495667,281.320953 459.571472,293.377167 438.555267,314.330902 
	C419.929535,332.901306 408.393799,355.643738 400.437836,380.346405 
	C392.399506,405.304871 387.930176,431.015320 385.255676,457.055542 
	C383.914246,470.116608 382.660339,483.186615 381.183441,496.626282 
	C377.307098,497.000000 373.614166,497.000000 369.460632,497.000000 
	C369.498749,488.503387 368.311890,480.079193 367.536133,471.673828 
	C365.334473,447.818298 362.198395,424.072906 356.516144,400.754486 
	C351.127930,378.642761 343.617737,357.344299 331.438751,337.929047 
	C312.898102,308.372345 285.834869,289.966949 253.517731,278.474426 
	C227.499725,269.221954 200.546158,264.257446 173.189560,261.286133 
	C159.300140,259.777557 145.376450,258.576721 131.459885,257.330383 
	C127.484169,256.974365 125.118561,254.927979 125.101494,251.059387 
	C125.083641,247.010178 127.985695,245.230789 131.674667,244.907257 
	C140.954880,244.093353 150.264389,243.589386 159.531921,242.659653 
	C194.040298,239.197723 228.146683,233.866959 260.714722,221.156784 
	C303.762421,204.356796 332.279480,173.728104 347.809021,130.510803 
	C356.519653,106.269821 361.335541,81.177795 364.753662,55.739761 
	C366.925049,39.580070 367.931671,23.315983 369.511871,7.103882 
	C369.712860,5.041705 370.175751,3.179512 371.799316,1.315765 
	C374.041656,1.000000 376.083344,1.000000 378.562500,1.000000 
M199.119568,252.396042 
	C215.705246,255.169495 232.067719,258.869537 248.170639,263.763245 
	C300.859650,279.775513 338.565247,311.991974 358.046295,364.357788 
	C366.437958,386.914917 371.499695,410.233704 375.533356,434.705566 
	C379.952148,408.073792 385.348389,382.552246 395.554199,358.315002 
	C406.684235,331.882965 422.606293,309.100494 445.889832,291.816345 
	C469.645782,274.181458 496.768097,264.454681 525.167603,257.746490 
	C535.668152,255.266159 546.312500,253.394165 558.309875,250.956497 
	C539.444580,248.050186 522.201416,244.483490 505.314636,239.318573 
	C470.803864,228.763260 440.281250,212.081375 417.822052,182.833984 
	C401.504028,161.583878 391.675232,137.345886 384.722565,111.752258 
	C380.911133,97.721962 378.280090,83.433479 375.564392,67.815948 
	C371.150818,94.332664 365.787201,119.169022 356.084808,142.893631 
	C341.765442,177.907639 318.874969,205.266266 285.222809,223.233536 
	C262.665009,235.277390 238.431015,242.251556 213.561691,247.353775 
	C207.026337,248.694580 200.426071,249.719009 193.855621,250.888733 
	C193.887146,251.086334 193.918671,251.283936 193.950195,251.481552 
	C195.419250,251.718430 196.888290,251.955307 199.119568,252.396042 
z"/>
</svg>